<?xml version="1.0" encoding="utf-8"?>
<!-- Generator: Adobe Illustrator 23.0.1, SVG Export Plug-In . SVG Version: 6.00 Build 0)  -->
<svg version="1.1" id="Layer_1" xmlns="http://www.w3.org/2000/svg" xmlns:xlink="http://www.w3.org/1999/xlink" x="0px" y="0px"
	 viewBox="0 0 300 300" style="enable-background:new 0 0 300 300;" xml:space="preserve">
<style type="text/css">
	.st0{fill-rule:evenodd;clip-rule:evenodd;fill:#162A51;}
	.st1{fill-rule:evenodd;clip-rule:evenodd;fill:#0074FE;}
	.st2{fill-rule:evenodd;clip-rule:evenodd;fill:#006CEE;}
	.st3{fill-rule:evenodd;clip-rule:evenodd;fill:#00ECDC;}
	.st4{fill-rule:evenodd;clip-rule:evenodd;fill:#FEFEFE;}
	.st5{fill-rule:evenodd;clip-rule:evenodd;fill:#FDE4A8;}
</style>
<g>
	<g>
		<path class="st0" d="M114.94,271c0-2.67,0-5.34,0-8.05c8.02,0,16.07,0,24.08,0c0,2.67,0,5.34,0,8.05
			C131.01,271,122.96,271,114.94,271"/>
		<path class="st0" d="M42.62,69.89c-2.67,0-5.34,0-8.05,0c0-5.34,0-10.72,0-16.07c2.67,0,5.34,0,8.05,0
			C42.62,59.2,42.62,64.54,42.62,69.89"/>
		<path class="st0" d="M179.21,134.16c0,5.31,0,10.62,0,15.93c0.04,0.04,0.07,0.07,0.11,0.11c0.04,0.04,0.07,0.04,0.11,0.04
			c5.27,0,10.51,0,15.75,0c0.14,0.14,0.21,0.21,0.35,0.35c0,2.5,0,5.03,0,7.66c2.71,0,5.34,0,8.05,0c0,2.71,0,5.34,0,8.02
			c2.67,0,5.27,0,7.84,0c0.07,0.07,0.11,0.11,0.14,0.14c0.04,0.04,0.04,0.07,0.04,0.11c0,7.95,0,15.89,0,23.87c2.67,0,5.27,0,8.02,0
			c0,2.71,0,5.34,0,8.05c2.71,0,5.34,0,7.98,0c0.14,0.39,0.11,0.77,0.11,1.16c0,4.68,0,9.32,0,13.99c0,0.42,0.21,0.91-0.53,1.2
			c-2.32,0-4.85,0-7.45,0c0,2.57,0,5.13,0,7.59c-0.18,0.18-0.28,0.28-0.39,0.39c-10.65,0-21.31,0-32.03,0c0-2.64,0-5.27,0-7.98
			c-5.38,0-10.72,0-16.07,0c0-8.05,0-16.03,0-24.08c-10.72,0-21.41,0-32.14,0c0,7.91,0,15.82,0,23.73c2.64,0,5.24,0,7.88,0
			c0.21,1.2,0.28,43.56,0.11,48.52c-2.67,0-5.31,0-7.98,0c0-10.79,0-21.59,0-32.38c0-5.27,0-10.51,0-15.82c-2.67,0-5.24,0-7.84,0
			c-0.04,0-0.07-0.04-0.11-0.04c-0.04-0.04-0.07-0.07-0.07-0.11c0-5.41,0-10.79,0-16.17c0-2.67,0-5.34,0-8.02c2.67,0,5.24,0,7.84,0
			c0.04,0,0.07-0.04,0.11-0.04c0.04-0.04,0.07-0.07,0.11-0.11c0-2.64,0-5.27,0-7.91c5.34,0,10.72,0,16.07,0c5.34,0,10.72,0,16.07,0
			c0,2.67,0,5.31,0,8.09c2.74,0,5.38,0,8.05,0c0,5.38,0,10.69,0,16.07c2.71,0,5.34,0,8.05,0c-0.28,0.95,0.18,1.72,0.21,2.57
			c0.04,0.91,0,1.83,0,2.71c0,0.81,0,1.65,0,2.46c0,0.18,0.07,0.28,0.25,0.25c10.44,0,20.92,0,31.36,0c0.18,0,0.25-0.07,0.25-0.25
			c0-5.1,0-10.2,0-15.29c0-0.18-0.07-0.28-0.25-0.25c-2.29,0-4.57,0-6.86,0c-0.35,0-0.67-0.04-0.91-0.46c0-2.46,0-4.99,0-7.56
			c-2.57,0-5.1,0-7.59,0c-0.18-0.18-0.28-0.28-0.42-0.42c0-7.91,0-15.86,0-23.77c0-0.04-0.04-0.07-0.04-0.11
			c-0.04-0.04-0.07-0.07-0.11-0.07c-2.64,0-5.27,0-7.88,0c0-2.67,0-5.31,0-8.02c-8.09,0-16.1,0-24.08,0c0-8.02,0-16.03,0-24.08
			C173.9,134.16,176.54,134.16,179.21,134.16"/>
		<path class="st0" d="M211.35,94.01c0-2.64,0-5.27,0-7.91c1.16-0.21,27.11-0.28,32.35-0.11c0,2.6,0,5.24,0,7.81
			c0.07,0.07,0.11,0.11,0.14,0.14c0.04,0.04,0.07,0.04,0.11,0.04c5.27,0,10.51,0,15.86,0c0,2.71,0,5.38,0,8.02
			c-2.67,0-5.31,0-8.05,0c0,2.71,0,5.38,0,8.05c0,2.67,0,5.31,0,8.02c2.71,0,5.38,0,8.05,0c0,2.64,0,5.27,0,7.91
			c-0.04,0.04-0.04,0.07-0.11,0.11c-0.04,0.04-0.07,0.04-0.11,0.04c-5.27,0-10.51,0-15.82,0c0,2.67,0,5.27,0,7.98
			c-10.79,0-21.59,0-32.45,0c0-2.64,0-5.31,0-7.98c8.09,0,16.17,0,24.37,0c0-2.71,0-5.34,0-8.05c2.71,0,5.31,0,8.02,0
			c0-2.71,0-5.38,0-8.02s0-5.31,0-8.05c-2.71,0-5.38,0-8.05,0c0-2.67,0-5.31,0-8.02C227.52,94.01,219.43,94.01,211.35,94.01"/>
		<path class="st0" d="M179.21,61.87c2.64,0,5.27,0,7.91,0c0.04,0.04,0.07,0.04,0.07,0.07c0.04,0.04,0.04,0.07,0.04,0.11
			c0,10.62,0,21.24,0,31.92c8.05,0,16.07,0,24.12,0c0,10.72,0,21.41,0,32.14c-2.67,0-5.34,0-8.05,0c0-8.02,0-16.03,0-24.05
			c-5.38,0-10.72,0-16.07,0c0,2.64,0,5.2,0,7.81c0,0.04-0.04,0.07-0.04,0.11c-0.04,0.04-0.07,0.07-0.11,0.11c-2.64,0-5.27,0-7.88,0
			c0-2.67,0-5.34,0-8.05c0-8.02,0-16.07,0-24.08C179.21,72.59,179.21,67.21,179.21,61.87"/>
		<path class="st0" d="M114.94,45.8c0-2.64,0-5.27,0-7.91c0.04-0.04,0.04-0.07,0.11-0.11c0.04,0,0.07-0.04,0.11-0.04
			c5.27,0,10.51,0,15.82,0c0-2.67,0-5.27,0-7.98c8.05,0,16.07,0,24.15,0c0,2.64,0,5.31,0,7.98c-5.34,0-10.65,0-16.07,0
			c0,2.71,0,5.38,0,8.05C131.01,45.8,122.96,45.8,114.94,45.8"/>
		<path class="st0" d="M163.14,45.8c2.67,0,5.31,0,8.02,0c0,2.67,0,5.31,0,8.02c2.67,0,5.34,0,8.05,0c0,2.74,0,5.41,0,8.05
			c-2.67,0-5.34,0-8.02,0c-5.34,0-10.65,0-16.07,0c0,2.71,0,5.38,0,8.02c-2.67,0-5.31,0-8.05,0c0-5.41,0-10.72,0-16.07
			c5.34,0,10.65,0,16.07,0C163.14,51.11,163.14,48.44,163.14,45.8"/>
		<path class="st0" d="M82.77,69.89c5.34,0,10.72,0,16.07,0c0,8.02,0,16.07,0,24.08c-2.67,0-5.34,0-8.02,0c0-5.34,0-10.69,0-16.07
			c-2.67,0-5.24,0-7.84,0c-0.04,0-0.07-0.04-0.11-0.04c-0.04-0.04-0.07-0.07-0.07-0.11C82.77,75.16,82.77,72.52,82.77,69.89"/>
		<path class="st0" d="M74.75,53.82c2.67,0,5.31,0,8.02,0c0,5.41,0,10.72,0,16.07c-2.67,0-5.31,0-8.09,0c0,2.74,0,5.38,0,8.02
			c-2.71,0-5.31,0-7.95,0c0-5.34,0-10.69,0-16.03c2.67,0,5.27,0,7.98,0C74.75,59.16,74.75,56.49,74.75,53.82"/>
		<path class="st0" d="M203.3,126.14c0,2.67,0,5.31,0,8.02c-8.09,0-16.1,0-24.08,0c0-2.67,0-5.31,0-8.02
			C187.26,126.14,195.28,126.14,203.3,126.14"/>
		<path class="st0" d="M259.8,102.02c2.64,0,5.27,0,7.91,0c0.21,1.09,0.25,12.02,0.11,16.07c-2.67,0-5.31,0-7.98,0
			c0-2.67,0-5.34,0-8.02C259.8,107.4,259.8,104.73,259.8,102.02"/>
		<path class="st0" d="M98.87,69.89c0-5.34,0-10.65,0-16.07c2.71,0,5.38,0,8.02,0c0,5.34,0,10.72,0,16.07
			C104.22,69.89,101.54,69.89,98.87,69.89"/>
		<path class="st0" d="M50.63,45.8c0-2.64,0-5.27,0-7.91c1.09-0.21,12.02-0.25,16.07-0.11c0,2.67,0,5.31,0,7.98
			C61.36,45.8,56.01,45.8,50.63,45.8"/>
		<path class="st0" d="M106.89,53.82c0-2.67,0-5.31,0-8.02c2.71,0,5.38,0,8.05,0c0,2.64,0,5.31,0,8.02
			C112.2,53.82,109.56,53.82,106.89,53.82"/>
		<path class="st0" d="M66.7,45.8c2.67,0,5.31,0,8.05,0c0,2.71,0,5.38,0,8.02c-2.67,0-5.31,0-8.05,0
			C66.7,51.11,66.7,48.44,66.7,45.8"/>
		<path class="st0" d="M42.62,53.82c0-2.67,0-5.31,0-8.02c2.71,0,5.38,0,8.02,0c0,2.64,0,5.31,0,8.02
			C47.93,53.82,45.29,53.82,42.62,53.82"/>
		<path class="st0" d="M155.09,37.75c2.67,0,5.31,0,8.02,0c0,2.71,0,5.38,0,8.05c-2.67,0-5.31,0-8.02,0
			C155.09,43.06,155.09,40.42,155.09,37.75"/>
		<path class="st0" d="M114.94,262.98c-2.64,0-5.27,0-7.91,0c-0.04-0.04-0.07-0.07-0.11-0.11c-0.04-0.04-0.04-0.07-0.04-0.11
			c0-13.29,0-26.58,0-39.94c-2.67,0-5.34,0-8.02,0c0-29.6,0-59.14,0-88.64c2.67,0,5.31,0,8.02,0c0,8.09,0,16.1,0,24.08
			c0,5.34,0,10.72,0,16.07c0,10.72,0,21.41,0,32.14c0,5.34,0,10.69,0,16.07c2.67,0,5.24,0,7.84,0c0.04,0,0.07,0.04,0.11,0.04
			c0.04,0.04,0.07,0.07,0.11,0.11c0,2.64,0,5.27,0,7.91C114.94,241.4,114.94,252.19,114.94,262.98"/>
		<path class="st0" d="M98.87,134.16c-2.67,0-5.31,0-8.02,0c0-5.41,0-10.72,0-16.07c2.67,0,5.31,0,8.02,0
			C98.87,123.51,98.87,128.85,98.87,134.16"/>
		<path class="st0" d="M66.7,94.01c-2.64,0-5.31,0-8.02,0c0-2.71,0-5.38,0-8.05c2.64,0,5.31,0,8.02,0
			C66.7,88.7,66.7,91.33,66.7,94.01"/>
		<path class="st0" d="M74.75,102.02c-2.67,0-5.31,0-8.05,0c0-2.71,0-5.38,0-8.02c2.67,0,5.31,0,8.05,0
			C74.75,96.71,74.75,99.39,74.75,102.02"/>
		<path class="st0" d="M58.68,85.96c-2.67,0-5.31,0-8.05,0c0-2.71,0-5.38,0-8.02c2.67,0,5.31,0,8.05,0
			C58.68,80.65,58.68,83.32,58.68,85.96"/>
		<path class="st0" d="M82.77,110.07c-2.64,0-5.31,0-8.02,0c0-2.74,0-5.38,0-8.05c2.67,0,5.34,0,8.02,0
			C82.77,104.73,82.77,107.4,82.77,110.07"/>
		<path class="st0" d="M90.82,118.09c-2.67,0-5.31,0-8.02,0c0-2.71,0-5.38,0-8.02c2.67,0,5.31,0,8.02,0
			C90.82,112.78,90.82,115.42,90.82,118.09"/>
		<path class="st0" d="M50.63,77.94c-2.64,0-5.31,0-8.02,0c0-2.71,0-5.38,0-8.02c2.64,0,5.31,0,8.02,0
			C50.63,72.63,50.63,75.27,50.63,77.94"/>
	</g>
	<path class="st1" d="M114.94,262.98c0-10.79,0-21.59,0-32.38c8.02,0,16.07,0,24.08,0c0,10.79,0,21.59,0,32.38
		C131.01,262.98,122.96,262.98,114.94,262.98"/>
	<path class="st2" d="M50.63,77.94c0-2.64,0-5.31,0-8.02c-2.71,0-5.38,0-8.02,0c0-5.34,0-10.72,0-16.07c2.64,0,5.31,0,8.02,0
		c0-2.71,0-5.38,0-8.02c5.34,0,10.72,0,16.07,0c0,2.64,0,5.31,0,8.02c2.71,0,5.38,0,8.05,0c0,2.67,0,5.31,0,8.02
		c-2.71,0-5.31,0-7.98,0c0,5.34,0,10.69,0,16.03c2.64,0,5.24,0,7.95,0c0-2.64,0-5.27,0-8.02c2.74,0,5.41,0,8.09,0
		c0,2.64,0,5.27,0,7.91c0.04,0.04,0.07,0.07,0.07,0.11c0.04,0,0.07,0.04,0.11,0.04c2.57,0,5.17,0,7.84,0c0,5.38,0,10.72,0,16.07
		c0,2.64,0,5.31,0,8.02c-2.71,0-5.38,0-8.02,0c-2.67,0-5.34,0-8.02,0c0-2.67,0-5.31,0-8.02c-2.71,0-5.38,0-8.05,0
		c0-2.67,0-5.31,0-8.05c-2.71,0-5.38,0-8.02,0c0-2.64,0-5.31,0-8.02C55.98,77.94,53.31,77.94,50.63,77.94"/>
	<path class="st3" d="M82.77,102.02c2.67,0,5.31,0,8.02,0c0-2.71,0-5.38,0-8.02c2.67,0,5.34,0,8.02,0c0,5.34,0,10.65,0,16.07
		c2.71,0,5.38,0,8.02,0c0,2.67,0,5.31,0,8.02c2.71,0,5.38,0,8.05,0c0,2.67,0,5.31,0,8.02c2.71,0,5.38,0,8.02,0c0,2.67,0,5.31,0,8.02
		c2.71,0,5.38,0,8.05,0c2.67,0,5.34,0,8.02,0c8.02,0,16.03,0,24.12,0c0-2.71,0-5.34,0-8.05c2.71,0,5.31,0,8.02,0
		c0-2.71,0-5.38,0-8.02c2.67,0,5.31,0,8.02,0c0-2.71,0-5.38,0-8.02c2.64,0,5.27,0,7.88,0c0.04-0.04,0.07-0.04,0.11-0.11
		c0.04-0.04,0.04-0.07,0.04-0.11c0-2.57,0-5.17,0-7.81c5.34,0,10.69,0,16.07,0c0,8.02,0,16.03,0,24.05c-8.02,0-16.03,0-24.08,0
		c0,2.71,0,5.38,0,8.02c-2.67,0-5.31,0-8.02,0c0,8.09,0,16.1,0,24.08c-21.41,0-42.86,0-64.27,0c0-8.02,0-16.03,0-24.08
		c-2.71,0-5.38,0-8.02,0c0-5.34,0-10.65,0-16.07c-2.71,0-5.38,0-8.02,0c0-2.67,0-5.31,0-8.02c-2.71,0-5.38,0-8.02,0
		C82.77,107.4,82.77,104.73,82.77,102.02"/>
	<g>
		<path class="st2" d="M219.12,214.5c-10.44,0-20.92,0-31.36,0c0-0.18-0.07-0.25-0.25-0.25c0-0.81,0-1.62,0-2.46
			c0-0.91,0.04-1.83,0-2.71c-0.04-0.84-0.46-1.62-0.21-2.57c-2.71,0-5.38,0-8.05,0c0-5.38,0-10.69,0-16.07c-2.67,0-5.34,0-8.09,0
			c0-2.74,0-5.41,0-8.09c2.67,0,5.31,0,8.02,0c0-2.6,0-5.13,0-7.63c0.18-0.18,0.28-0.32,0.42-0.46c2.5,0,5.03,0,7.59,0
			c0-2.57,0-5.1,0-7.38c0.21-0.67,0.56-0.63,0.91-0.63c2.36,0,4.75,0,7.1,0c2.64,0,5.24,0,7.88,0c0.04,0.04,0.07,0.04,0.11,0.07
			c0.04,0.04,0.04,0.07,0.04,0.11c0,7.95,0,15.86,0,23.77c0.14,0.14,0.25,0.25,0.42,0.42c2.5,0,5.03,0,7.59,0c0,2.57,0,5.1,0,7.56
			c0.25,0.42,0.56,0.46,0.91,0.46c2.29-0.04,4.57,0,6.86,0c0,0.18,0.07,0.25,0.25,0.25c0,5.1,0,10.2,0,15.29
			C219.19,214.25,219.12,214.32,219.12,214.5 M187.76,206.87c-0.07-0.11-0.18-0.11-0.25,0
			C187.58,206.97,187.69,206.97,187.76,206.87"/>
		<path class="st2" d="M106.89,158.28c21.41,0,42.86,0,64.27,0c0,2.67,0,5.34,0,8.02c-2.67,0-5.24,0-7.84,0
			c-0.04,0-0.07,0.04-0.11,0.04c-0.04,0.04-0.07,0.07-0.14,0.14c0,2.57,0,5.2,0,7.84c-2.64,0-5.2,0-7.81,0
			c-0.04,0-0.07,0.04-0.11,0.04c-0.04,0.04-0.07,0.07-0.07,0.11c0,2.64,0,5.27,0,7.91c-5.34,0-10.72,0-16.07,0s-10.69,0-16.07,0
			c0-2.67,0-5.24,0-7.84c0-0.04-0.04-0.07-0.04-0.11c-0.04-0.04-0.07-0.07-0.11-0.07c-5.31,0-10.62,0-15.93,0
			C106.89,169,106.89,163.62,106.89,158.28"/>
	</g>
	<path class="st3" d="M106.89,174.35c5.31,0,10.62,0,15.93,0c0.04,0.04,0.07,0.07,0.11,0.07c0.04,0.04,0.04,0.07,0.04,0.11
		c0,2.57,0,5.17,0,7.84c5.38,0,10.72,0,16.07,0c0,2.64,0,5.27,0,7.91c-0.04,0.04-0.04,0.07-0.11,0.11
		c-0.04,0.04-0.07,0.04-0.11,0.04c-2.6,0-5.17,0-7.84,0c0,2.71,0,5.38,0,8.02c-2.67,0-5.34,0-8.05,0c0,2.67,0,5.24,0,7.84
		c0,0.04-0.04,0.07-0.04,0.11c-0.04,0.04-0.07,0.04-0.11,0.07c-5.31,0-10.62,0-15.93,0C106.89,195.76,106.89,185.07,106.89,174.35"
		/>
	<path class="st2" d="M106.89,206.48c5.31,0,10.62,0,15.93,0c0.04-0.04,0.07-0.07,0.11-0.07c0.04-0.04,0.04-0.07,0.04-0.11
		c0-2.6,0-5.17,0-7.84c2.71,0,5.38,0,8.05,0c0,5.41,0,10.79,0,16.17c0.04,0.04,0.04,0.07,0.07,0.11c0.04,0.04,0.07,0.04,0.11,0.04
		c2.6,0,5.17,0,7.84,0c0,5.31,0,10.55,0,15.82c-8.02,0-16.07,0-24.08,0c0-2.64,0-5.27,0-7.91c-0.04-0.04-0.07-0.07-0.11-0.11
		s-0.07-0.04-0.11-0.04c-2.6,0-5.17,0-7.84,0C106.89,217.17,106.89,211.83,106.89,206.48"/>
	<path class="st3" d="M155.09,182.36c0-2.64,0-5.27,0-7.91c0.04-0.04,0.04-0.07,0.07-0.11c0.04-0.04,0.07-0.04,0.11-0.04
		c2.6,0,5.17,0,7.81,0c0-2.67,0-5.27,0-7.84c0.07-0.07,0.11-0.11,0.14-0.14c0.04-0.04,0.07-0.04,0.11-0.04c2.57,0,5.17,0,7.84,0
		c0-2.71,0-5.38,0-8.02c8.02,0,16.03,0,24.08,0c0,2.71,0,5.38,0,8.02c-2.36,0-4.75,0-7.1,0c-0.35,0-0.7-0.07-0.91,0.63
		c0,2.29,0,4.82,0,7.38c-2.57,0-5.1,0-7.59,0c-0.14,0.14-0.28,0.28-0.42,0.46c0,2.46,0,4.99,0,7.63c-2.71,0-5.38,0-8.02,0
		C165.82,182.36,160.44,182.36,155.09,182.36"/>
	<g>
		<path class="st1" d="M219.36,198.96c-0.18,0-0.25-0.07-0.25-0.25C219.29,198.68,219.36,198.78,219.36,198.96"/>
		<path class="st1" d="M187.47,214.25c0.18,0,0.28,0.07,0.25,0.25C187.54,214.53,187.47,214.43,187.47,214.25"/>
		<path class="st1" d="M219.12,214.5c0-0.18,0.07-0.25,0.25-0.25C219.36,214.43,219.29,214.5,219.12,214.5"/>
	</g>
	<path class="st2" d="M211.35,126.14c0-10.72,0-21.41,0-32.14c8.09,0,16.17,0,24.37,0c0,2.71,0,5.38,0,8.02c-5.41,0-10.86,0-16.31,0
		c0,2.67,0,5.24,0,7.84c0,0.04,0.04,0.07,0.04,0.11c0.04,0.04,0.07,0.07,0.11,0.11c8.09,0,16.14,0,24.22,0c0,2.67,0,5.31,0,8.02
		c-2.71,0-5.31,0-8.02,0c0,2.67,0,5.34,0,8.05C227.52,126.14,219.43,126.14,211.35,126.14"/>
	<g>
		<path class="st3" d="M243.73,110.07c-8.09,0-16.14,0-24.22,0c-0.04-0.04-0.07-0.04-0.11-0.11c-0.04-0.04-0.04-0.07-0.04-0.11
			c0-2.6,0-5.17,0-7.84c5.48,0,10.9,0,16.31,0c2.67,0,5.31,0,8.05,0C243.73,104.77,243.73,107.4,243.73,110.07"/>
		<path class="st3" d="M259.8,102.02c0,2.67,0,5.34,0,8.05c-2.67,0-5.34,0-8.05,0c0-2.67,0-5.31,0-8.05
			C254.49,102.02,257.13,102.02,259.8,102.02"/>
	</g>
	<path class="st2" d="M251.78,110.07c2.67,0,5.34,0,8.05,0c0,2.67,0,5.34,0,8.02c-2.67,0-5.31,0-8.05,0
		C251.78,115.38,251.78,112.71,251.78,110.07"/>
	<path class="st4" d="M179.21,77.94c0,8.02,0,16.07,0,24.08c-2.67,0-5.34,0-8.02,0c0-5.34,0-10.72,0-16.07c0-2.67,0-5.34,0-8.02
		C173.83,77.94,176.54,77.94,179.21,77.94"/>
	<path class="st2" d="M179.21,77.94c-2.67,0-5.34,0-8.02,0c0-2.67,0-5.34,0-8.02c0-2.67,0-5.34,0-8.02c2.67,0,5.34,0,8.02,0
		C179.21,67.21,179.21,72.59,179.21,77.94"/>
	<path class="st5" d="M171.16,102.02c2.67,0,5.34,0,8.02,0c0,2.67,0,5.34,0,8.05c-2.67,0-5.34,0-8.02,0
		C171.16,107.4,171.16,104.73,171.16,102.02"/>
	<path class="st2" d="M106.89,53.82c2.67,0,5.31,0,8.05,0c0-2.71,0-5.38,0-8.02c8.02,0,16.07,0,24.08,0c0,2.64,0,5.31,0,8.02
		c2.71,0,5.38,0,8.02,0c0,5.34,0,10.65,0,16.07c2.71,0,5.38,0,8.05,0c0,2.67,0,5.34,0,8.02c-8.05,0-16.07,0-24.08,0
		c-2.67,0-5.31,0-8.05,0c0,2.71,0,5.38,0,8.02c-2.67,0-5.31,0-8.02,0c0,8.09,0,16.1,0,24.12c-2.67,0-5.34,0-8.05,0
		c0-5.34,0-10.72,0-16.07c0-8.05,0-16.07,0-24.08C106.89,64.54,106.89,59.2,106.89,53.82"/>
	<g>
		<path class="st3" d="M155.09,37.75c0,2.64,0,5.31,0,8.05c2.71,0,5.38,0,8.02,0c0,2.64,0,5.31,0,8.02c-5.41,0-10.76,0-16.07,0
			c0-2.67,0-5.31,0-8.02c-2.71,0-5.38,0-8.02,0c0-2.67,0-5.31,0-8.05C144.44,37.75,149.75,37.75,155.09,37.75"/>
		<path class="st3" d="M171.16,61.87c0,2.67,0,5.34,0,8.02c-5.34,0-10.72,0-16.07,0c0-2.67,0-5.31,0-8.02
			C160.51,61.87,165.82,61.87,171.16,61.87"/>
		<path class="st3" d="M106.89,69.89c0,8.02,0,16.07,0,24.08c-2.67,0-5.34,0-8.02,0c0-8.05,0-16.07,0-24.08
			C101.54,69.89,104.22,69.89,106.89,69.89"/>
	</g>
	<g>
		<path class="st0" d="M171.16,118.09c0,2.67,0,5.31,0,8.02c-2.71,0-5.31,0-8.02,0c0,2.67,0,5.34,0,8.05c-8.09,0-16.1,0-24.12,0
			c0-2.67,0-5.31,0-8.02c-2.71,0-5.38,0-8.02,0c0-2.67,0-5.31,0-8.02c2.67,0,5.24,0,7.84,0c0.04,0,0.07-0.04,0.11-0.04
			c0.04-0.04,0.07-0.07,0.11-0.11c0-2.64,0-5.27,0-7.91c5.34,0,10.72,0,16.07,0c2.67,0,5.34,0,8.02,0c0,2.67,0,5.31,0,8.02
			C165.85,118.09,168.52,118.09,171.16,118.09"/>
		<path class="st0" d="M98.87,94.01c2.67,0,5.34,0,8.02,0c0,5.34,0,10.72,0,16.07c-2.67,0-5.31,0-8.02,0
			C98.87,104.66,98.87,99.32,98.87,94.01"/>
	</g>
	<path class="st5" d="M131.01,126.14c2.67,0,5.31,0,8.02,0c0,2.71,0,5.38,0,8.02c-2.67,0-5.34,0-8.02,0
		C131.01,131.49,131.01,128.81,131.01,126.14"/>
	<g>
		<path class="st0" d="M131.01,126.14c0,2.67,0,5.34,0,8.02c-2.67,0-5.31,0-8.05,0c0-2.71,0-5.38,0-8.02
			C125.66,126.14,128.34,126.14,131.01,126.14"/>
		<path class="st0" d="M122.96,126.14c-2.67,0-5.31,0-8.02,0c0-2.71,0-5.38,0-8.02c2.67,0,5.34,0,8.02,0
			C122.96,120.8,122.96,123.47,122.96,126.14"/>
		<path class="st0" d="M106.89,110.07c2.67,0,5.34,0,8.05,0c0,2.67,0,5.34,0,8.02c-2.67,0-5.31,0-8.05,0
			C106.89,115.38,106.89,112.71,106.89,110.07"/>
		<path class="st0" d="M171.16,110.07c2.67,0,5.34,0,8.02,0c0,2.67,0,5.31,0,8.02c-2.71,0-5.38,0-8.02,0
			C171.16,115.42,171.16,112.75,171.16,110.07"/>
	</g>
	<path class="st1" d="M187.76,206.87c-0.07,0.14-0.18,0.14-0.25,0C187.58,206.76,187.69,206.76,187.76,206.87"/>
	<path class="st0" d="M171.16,85.96c0,5.34,0,10.72,0,16.07c-2.67,0-5.34,0-8.02,0c0-5.34,0-10.72,0-16.07
		C165.82,85.96,168.49,85.96,171.16,85.96"/>
	<path class="st2" d="M171.16,85.96c-2.67,0-5.34,0-8.02,0c-2.67,0-5.34,0-8.02,0c0-2.67,0-5.34,0-8.02c5.34,0,10.72,0,16.07,0
		C171.16,80.61,171.16,83.28,171.16,85.96"/>
	<path class="st0" d="M171.16,77.94c-5.34,0-10.72,0-16.07,0c0-2.67,0-5.34,0-8.02c5.34,0,10.72,0,16.07,0
		C171.16,72.59,171.16,75.27,171.16,77.94"/>
	<g>
		<path class="st4" d="M163.14,102.02c2.67,0,5.34,0,8.02,0c0,2.67,0,5.34,0,8.05c-2.67,0-5.34,0-8.02,0
			C163.14,107.4,163.14,104.73,163.14,102.02"/>
		<path class="st4" d="M155.09,77.94c0,2.67,0,5.34,0,8.02c-5.34,0-10.69,0-16.03,0c-0.18,3.97-0.11,14.98,0.11,16.07
			c5.31,0,10.62,0,15.93,0c0,2.67,0,5.34,0,8.05c-5.34,0-10.72,0-16.07,0c-2.67,0-5.31,0-8.05,0c0-2.74,0-5.38,0-8.05
			c-2.71,0-5.31,0-8.02,0c0-5.38,0-10.69,0-16.03c2.67,0,5.31,0,8.05,0c0-2.71,0-5.38,0-8.02
			C139.02,77.94,147.04,77.94,155.09,77.94"/>
	</g>
	<path class="st5" d="M122.96,85.96c0,5.34,0,10.65,0,16.03c2.67,0,5.31,0,8.02,0c0,2.67,0,5.34,0,8.05c2.74,0,5.41,0,8.05,0
		c0,2.64,0,5.27,0,7.91c-0.04,0.04-0.04,0.07-0.11,0.11c-0.04,0.04-0.07,0.04-0.11,0.04c-2.6,0-5.17,0-7.84,0c0,2.71,0,5.38,0,8.02
		c-2.67,0-5.34,0-8.05,0c0-2.67,0-5.34,0-8.02c0-2.67,0-5.31,0-8.02c-2.71,0-5.38,0-8.02,0c0-8.02,0-16.03,0-24.12
		C117.65,85.96,120.28,85.96,122.96,85.96"/>
	<path class="st0" d="M139.02,45.8c2.67,0,5.31,0,8.02,0c0,2.71,0,5.38,0,8.02c-2.67,0-5.31,0-8.02,0
		C139.02,51.11,139.02,48.44,139.02,45.8"/>
	<g>
		<path class="st5" d="M131.01,77.94c0,2.67,0,5.31,0,8.02c-2.71,0-5.38,0-8.05,0c0-2.64,0-5.31,0-8.02
			C125.7,77.94,128.34,77.94,131.01,77.94"/>
		<path class="st5" d="M155.09,110.07c0-2.67,0-5.34,0-8.05c0-5.34,0-10.72,0-16.07c2.67,0,5.34,0,8.02,0c0,5.34,0,10.72,0,16.07
			c0,2.67,0,5.34,0,8.05C160.44,110.07,157.76,110.07,155.09,110.07"/>
		<path class="st5" d="M163.14,110.07c2.67,0,5.34,0,8.02,0c0,2.67,0,5.34,0,8.02c-2.67,0-5.31,0-8.02,0
			C163.14,115.38,163.14,112.71,163.14,110.07"/>
	</g>
	<path class="st2" d="M114.94,110.07c2.67,0,5.31,0,8.02,0c0,2.71,0,5.38,0,8.02c-2.67,0-5.34,0-8.02,0
		C114.94,115.42,114.94,112.75,114.94,110.07"/>
	<path class="st0" d="M155.09,85.96c0,5.34,0,10.72,0,16.07c-5.31,0-10.62,0-15.93,0c-0.21-1.09-0.28-12.09-0.11-16.07
		C144.4,85.96,149.75,85.96,155.09,85.96"/>
</g>
</svg>
